HIERARCHY
ROOT Hips
{
 OFFSET 0.000000 0.000000 0.000000
 CHANNELS 6 Xposition Yposition Zposition Yrotation Xrotation Zrotation
 JOINT Chest
 {
  OFFSET 0.000000 9.585900 0.002600
  CHANNELS 3 Yrotation Xrotation Zrotation
  JOINT Chest2
  {
   OFFSET 0.000000 9.601200 -0.005300
   CHANNELS 3 Yrotation Xrotation Zrotation
   JOINT Chest3
   {
    OFFSET 0.000000 9.561800 0.000000
    CHANNELS 3 Yrotation Xrotation Zrotation
    JOINT Chest4
    {
     OFFSET 0.000000 9.552100 0.000000
     CHANNELS 3 Yrotation Xrotation Zrotation
     JOINT Neck
     {
      OFFSET 0.000000 14.453000 0.000000
      CHANNELS 3 Yrotation Xrotation Zrotation
      JOINT Head
      {
       OFFSET 0.000000 8.936500 -0.011300
       CHANNELS 3 Yrotation Xrotation Zrotation
       End Site
       {
        OFFSET 0.000000 17.073600 -0.006000
       }
      }
     }
     JOINT RightCollar
     {
      OFFSET -2.921100 9.558500 0.000000
      CHANNELS 3 Yrotation Xrotation Zrotation
      JOINT RightShoulder
      {
       OFFSET -13.519700 0.000000 0.000000
       CHANNELS 3 Yrotation Xrotation Zrotation
       JOINT RightElbow
       {
        OFFSET 0.000000 -29.696600 0.000000
        CHANNELS 3 Yrotation Xrotation Zrotation
        JOINT RightWrist
        {
         OFFSET 0.000000 -24.004700 0.000000
         CHANNELS 3 Yrotation Xrotation Zrotation
         End Site
         {
          OFFSET 0.000000 -17.728500 0.000000
         }
        }
       }
      }
     }
     JOINT LeftCollar
     {
      OFFSET 2.921100 9.558500 0.000000
      CHANNELS 3 Yrotation Xrotation Zrotation
      JOINT LeftShoulder
      {
       OFFSET 13.519700 0.000000 0.000000
       CHANNELS 3 Yrotation Xrotation Zrotation
       JOINT LeftElbow
       {
        OFFSET 0.000000 -29.696600 0.000000
        CHANNELS 3 Yrotation Xrotation Zrotation
        JOINT LeftWrist
        {
         OFFSET 0.000000 -24.004700 0.000000
         CHANNELS 3 Yrotation Xrotation Zrotation
         End Site
         {
          OFFSET 0.000000 -17.728500 0.000000
         }
        }
       }
      }
     }
    }
   }
  }
 }
 JOINT RightHip
 {
  OFFSET -7.771700 -0.012900 -0.001300
  CHANNELS 3 Yrotation Xrotation Zrotation
  JOINT RightKnee
  {
   OFFSET 0.000000 -40.869800 0.001200
   CHANNELS 3 Yrotation Xrotation Zrotation
   JOINT RightAnkle
   {
    OFFSET 0.000000 -39.717900 0.002100
    CHANNELS 3 Yrotation Xrotation Zrotation
    JOINT RightToe
    {
     OFFSET 0.000000 -4.965400 11.033500
     CHANNELS 3 Yrotation Xrotation Zrotation
     End Site
     {
      OFFSET 0.000000 -1.423100 5.872300
     }
    }
   }
  }
 }
 JOINT LeftHip
 {
  OFFSET 7.771700 -0.012900 -0.001300
  CHANNELS 3 Yrotation Xrotation Zrotation
  JOINT LeftKnee
  {
   OFFSET 0.000000 -40.869800 0.001200
   CHANNELS 3 Yrotation Xrotation Zrotation
   JOINT LeftAnkle
   {
    OFFSET 0.000000 -39.717900 0.002100
    CHANNELS 3 Yrotation Xrotation Zrotation
    JOINT LeftToe
    {
     OFFSET 0.000000 -4.965400 11.033500
     CHANNELS 3 Yrotation Xrotation Zrotation
     End Site
     {
      OFFSET 0.000000 -1.423100 5.872300
     }
    }
   }
  }
 }
}
MOTION
Frames: 15
Frame Time: 0.008333
0.000000 85.388000 0.000000 0.000000 -5.767877 0.000000 0.000000 11.653817 0.000000 0.000000 -5.885947 0.000000 0.000000 -0.000000 0.000000 0.000000 -0.000000 0.000000 0.000000 12.528835 0.000000 0.000000 0.711642 0.000000 0.000000 -0.000000 0.000000 0.000000 0.000000 -90.000000 0.000000 -2.309062 0.000000 0.000000 2.309062 0.000000 0.000000 -0.000000 0.000000 0.000000 -0.000000 90.000000 0.000000 -2.309062 0.000000 0.000000 2.309062 0.000000 0.000000 8.520406 0.000000 0.000000 1.905762 0.000000 -0.000000 -4.658285 0.000000 0.000000 -0.000000 0.000000 0.000000 8.520406 0.000000 0.000000 1.905762 0.000000 -0.000000 -4.658285 0.000000 0.000000 -0.000000 0.000000
-106.330583 51.720145 -41.513166 179.114634 -20.860035 1.135703 0.057591 16.448842 0.675942 -0.004114 1.659125 0.115466 -0.023724 2.784093 0.198206 0.018534 14.561390 1.039581 -1.781490 17.407676 -0.850738 -1.666363 -7.428892 -0.502063 7.286639 13.006722 9.692482 29.832426 -6.468002 -33.245358 157.950518 -42.982228 169.410982 0.199805 3.221039 -17.005460 -9.193893 12.318877 -14.519705 -30.900627 -3.546838 37.424500 -138.145255 -46.660057 178.888840 10.605266 7.410329 17.756976 -13.071317 -62.066227 3.552877 -90.472617 79.860080 -98.549635 -3.773371 -12.012436 7.271995 0.203258 -0.796662 0.127811 9.497333 -59.612815 -10.546613 17.784770 83.856714 22.626369 -3.105620 -9.378499 -0.160922 0.101698 0.302598 0.049376
-106.327431 51.718818 -41.508948 179.103732 -20.851872 1.128638 0.076411 16.438113 0.687946 0.010111 1.649900 0.110908 -0.030913 2.789358 0.201590 0.041071 14.551224 1.034555 -1.787843 17.410251 -0.846427 -1.675648 -7.429186 -0.492486 7.278170 12.999538 9.691929 29.805779 -6.465995 -33.238699 157.827602 -42.921790 169.532847 0.161763 3.165479 -16.681918 -9.222428 12.315756 -14.504346 -30.921703 -3.533822 37.504826 -138.216002 -46.652104 178.942261 10.612088 7.379397 17.620993 -13.081431 -62.071690 3.581380 -90.454228 79.859976 -98.534586 -3.748853 -12.053547 7.283504 0.175095 -0.738327 0.107336 9.494180 -59.622562 -10.525789 17.762539 83.853990 22.603606 -3.093786 -9.365891 -0.159628 0.076888 0.295443 0.045186
-106.328909 51.719052 -41.508333 179.115955 -20.870178 1.141406 0.078232 16.446762 0.670279 0.001287 1.652922 0.112978 -0.018255 2.782117 0.198085 0.054567 14.545245 1.032906 -1.795346 17.411955 -0.839733 -1.683307 -7.428113 -0.482225 7.276391 12.969519 9.681697 29.763864 -6.450727 -33.208815 157.705811 -42.866734 169.655421 0.117364 3.120646 -16.351417 -9.251651 12.317481 -14.489586 -30.923639 -3.515142 37.516962 -138.229373 -46.589934 178.920939 10.623035 7.351378 17.457851 -13.056782 -62.062306 3.546351 -90.460580 79.858445 -98.546638 -3.769839 -11.995564 7.277455 0.202355 -0.776692 0.114321 9.508568 -59.601562 -10.551935 17.742199 83.850939 22.582091 -3.107590 -9.371260 -0.162836 0.101179 0.306569 0.051702
-106.328756 51.718560 -41.505609 179.119491 -20.877528 1.146756 0.089026 16.441463 0.661867 -0.005827 1.658327 0.115781 0.008853 2.753620 0.184525 0.051007 14.557913 1.040217 -1.797062 17.415729 -0.831631 -1.697440 -7.417706 -0.468773 7.259632 12.976862 9.695859 29.740553 -6.456768 -33.238487 157.615169 -42.828265 169.750416 0.070550 3.079586 -16.007961 -9.277120 12.323460 -14.475734 -30.925926 -3.495552 37.529389 -138.231089 -46.567401 178.916081 10.629872 7.293835 17.245364 -13.047509 -62.057520 3.533242 -90.449805 79.864051 -98.537282 -3.775236 -11.993787 7.277158 0.199416 -0.765414 0.108912 9.516336 -59.592380 -10.558458 17.742375 83.844003 22.578551 -3.115780 -9.366306 -0.159557 0.098900 0.309876 0.050559
-106.328361 51.717754 -41.501906 179.122665 -20.880620 1.149809 0.107327 16.421814 0.653411 -0.000692 1.652756 0.113109 -0.008334 2.771987 0.193744 0.067652 14.542448 1.031874 -1.801774 17.417694 -0.822710 -1.708040 -7.404766 -0.456333 7.245145 12.986820 9.710654 29.718187 -6.466227 -33.268491 157.563659 -42.809337 169.806449 0.048605 3.022544 -15.643436 -9.299731 12.331283 -14.461343 -30.960600 -3.453762 37.587438 -138.225170 -46.577680 178.956365 10.640522 7.241684 17.018085 -13.042216 -62.055483 3.524255 -90.425883 79.870132 -98.511142 -3.777310 -11.992885 7.265832 0.195852 -0.755075 0.111593 9.520444 -59.589245 -10.563421 17.661499 83.841398 22.498838 -3.118895 -9.357611 -0.159685 0.101382 0.308607 0.050037
-106.328190 51.716775 -41.497714 179.132905 -20.882201 1.150707 0.105838 16.414744 0.647541 0.009813 1.642413 0.106895 -0.017397 2.780817 0.199289 0.082768 14.528645 1.020726 -1.807072 17.417822 -0.812385 -1.717787 -7.433970 -0.451998 7.235102 12.985149 9.720279 29.693909 -6.464928 -33.280549 157.467671 -42.772445 169.901393 -0.001186 2.983241 -15.290194 -9.319674 12.342285 -14.443439 -30.962982 -3.433130 37.600269 -138.209677 -46.526339 178.936296 10.670929 7.220443 16.797606 -13.051835 -62.058030 3.525804 -90.410725 79.870940 -98.499121 -3.780771 -11.981362 7.256783 0.199170 -0.755886 0.114200 9.517850 -59.587860 -10.571493 17.669260 83.831519 22.507256 -3.120599 -9.345953 -0.162271 0.099937 0.311485 0.048649
-106.328555 51.716787 -41.496168 179.143267 -20.901827 1.154201 0.107105 16.421824 0.637668 0.006860 1.644943 0.106624 0.000813 2.762107 0.186534 0.079593 14.538896 1.028143 -1.814014 17.412979 -0.806109 -1.728402 -7.441448 -0.447930 7.229388 12.977716 9.720108 29.663873 -6.465528 -33.319572 157.375948 -42.733359 169.984466 -0.073340 2.956862 -14.954857 -9.335267 12.357450 -14.427739 -30.958251 -3.429250 37.607673 -138.213093 -46.475341 178.916026 10.700190 7.194357 16.580224 -13.059500 -62.041143 3.520337 -90.398019 79.869231 -98.495419 -3.779876 -11.971597 7.250343 0.203375 -0.758559 0.115597 9.515447 -59.567449 -10.578333 17.642495 83.827027 22.481094 -3.124852 -9.335445 -0.164394 0.103750 0.309153 0.049756
-106.328443 51.716031 -41.492795 179.144204 -20.910472 1.157387 0.124093 16.408110 0.625292 -0.008011 1.663881 0.118348 0.003881 2.758268 0.183674 0.103614 14.519196 1.000839 -1.827228 17.393241 -0.801610 -1.737163 -7.409117 -0.417038 7.213711 12.992567 9.757204 29.656005 -6.465629 -33.319432 157.262450 -42.685333 170.105509 -0.112077 2.909534 -14.620288 -9.358058 12.369545 -14.396248 -30.945368 -3.418153 37.605171 -138.255537 -46.383826 178.912652 10.715308 7.206613 16.381741 -13.057973 -62.033517 3.517026 -90.360312 79.874407 -98.462481 -3.777406 -11.961964 7.249537 0.201330 -0.751623 0.106031 9.519965 -59.559542 -10.581947 17.613218 83.824027 22.451737 -3.125318 -9.325746 -0.165277 0.104823 0.307526 0.049892
-106.328109 51.715144 -41.489260 179.145552 -20.918708 1.158440 0.130612 16.400408 0.616819 -0.006047 1.665833 0.119473 -0.000153 2.764797 0.187184 0.103282 14.522479 1.002023 -1.830346 17.384877 -0.805208 -1.739931 -7.412565 -0.414113 7.230288 12.969582 9.737468 29.615331 -6.458059 -33.325609 157.190047 -42.644250 170.178448 -0.144128 2.860586 -14.299404 -9.358963 12.358658 -14.402813 -30.938573 -3.410904 37.606739 -138.301827 -46.351625 178.925531 10.735318 7.165347 16.168739 -13.061795 -62.026027 3.517260 -90.321334 79.874389 -98.424826 -3.772409 -11.950198 7.244744 0.200323 -0.750874 0.102571 9.520000 -59.552515 -10.582606 17.601806 83.820384 22.441996 -3.125568 -9.316754 -0.172453 0.104805 0.306754 0.053745
-106.328385 51.714440 -41.486260 179.152885 -20.930852 1.160208 0.126168 16.399856 0.606121 -0.003050 1.665582 0.118310 0.000854 2.764226 0.185778 0.107452 14.521186 0.994703 -1.835452 17.387008 -0.793734 -1.762731 -7.471268 -0.425638 7.233425 12.966172 9.749107 29.558137 -6.457639 -33.388528 157.185454 -42.611687 170.193067 -0.174578 2.811679 -13.982448 -9.363368 12.357094 -14.395647 -30.931321 -3.399884 37.603890 -138.354026 -46.325607 178.944805 10.760762 7.121751 15.976186 -13.060890 -62.017961 3.510984 -90.287031 79.867542 -98.394974 -3.767588 -11.919123 7.240055 0.201195 -0.765911 0.103976 9.517376 -59.540727 -10.584866 17.553316 83.815270 22.392247 -3.127893 -9.306311 -0.173511 0.107380 0.304656 0.055392
-106.328033 51.713659 -41.483078 179.156565 -20.941986 1.158330 0.127268 16.396893 0.600995 -0.005771 1.667296 0.117441 0.001383 2.763542 0.184689 0.111754 14.504781 0.974354 -1.839681 17.387792 -0.777694 -1.779697 -7.497430 -0.426663 7.241799 12.979933 9.775800 29.530939 -6.456685 -33.402344 157.100866 -42.572074 170.282961 -0.206822 2.764757 -13.661442 -9.356504 12.374762 -14.382217 -30.931987 -3.381924 37.605611 -138.405203 -46.303000 178.974271 10.790303 7.082014 15.805929 -13.071004 -62.008595 3.518849 -90.253314 79.862506 -98.363590 -3.768512 -11.896241 7.232796 0.206123 -0.775180 0.105924 9.514037 -59.531518 -10.579802 17.479225 83.815223 22.318793 -3.130172 -9.299704 -0.173884 0.112749 0.304196 0.056794
-106.328545 51.712861 -41.479692 179.155911 -20.951719 1.161594 0.129479 16.399129 0.595158 -0.002543 1.660506 0.113112 0.006310 2.748282 0.176040 0.109432 14.519763 0.978263 -1.851757 17.373270 -0.779211 -1.795334 -7.509461 -0.425936 7.243283 12.988665 9.789929 29.522342 -6.456564 -33.407009 156.979697 -42.533697 170.403757 -0.241721 2.718146 -13.336691 -9.354869 12.375430 -14.389469 -30.923479 -3.374651 37.603659 -138.431710 -46.292180 178.971807 10.834765 7.040193 15.653352 -13.089584 -62.001869 3.536718 -90.214157 79.859188 -98.338085 -3.770580 -11.871587 7.229798 0.209765 -0.789538 0.107444 9.520894 -59.522338 -10.583026 17.430041 83.812945 22.270317 -3.133287 -9.292911 -0.174343 0.101296 0.303630 0.055801
-106.329333 51.712913 -41.478230 179.161079 -20.973746 1.162783 0.125652 16.413152 0.589316 0.004959 1.638972 0.105209 0.001554 2.767075 0.182939 0.110452 14.517328 0.971328 -1.867098 17.357887 -0.782971 -1.812692 -7.516988 -0.428001 7.247188 12.983773 9.797385 29.491891 -6.447824 -33.429165 156.892036 -42.503496 170.488419 -0.278020 2.672474 -13.003044 -9.353280 12.374205 -14.392208 -30.908214 -3.386120 37.568615 -138.478344 -46.260884 178.957590 10.848635 7.021677 15.520321 -13.090497 -61.985484 3.529573 -90.205252 79.857222 -98.332062 -3.768137 -11.834477 7.219280 0.221340 -0.807865 0.111693 9.516101 -59.499101 -10.581939 17.387483 83.809919 22.227202 -3.129049 -9.286932 -0.174367 0.100960 0.303663 0.054933
-106.330827 51.712238 -41.474557 179.162137 -20.981241 1.167606 0.129268 16.407125 0.582528 0.001976 1.637725 0.103902 0.000310 2.778409 0.186214 0.111182 14.508770 0.961287 -1.890574 17.335515 -0.798457 -1.806881 -7.498875 -0.416514 7.267564 12.966489 9.796411 29.444645 -6.434979 -33.427066 156.784860 -42.472794 170.590610 -0.315548 2.630234 -12.650532 -9.363605 12.350942 -14.408581 -30.882712 -3.356234 37.555914 -138.524889 -46.238914 178.981133 10.854786 7.015740 15.401516 -13.083894 -61.982628 3.520574 -90.165678 79.851852 -98.298028 -3.753831 -11.801975 7.214564 0.218360 -0.815499 0.112338 9.521953 -59.489962 -10.586467 17.431186 83.799728 22.263963 -3.131565 -9.281018 -0.168784 0.086729 0.306354 0.052030
